<?xml version="1.0" encoding="UTF-8" standalone="no"?>
<svg
   version="1.0"
   width="457.9285pt"
   height="496.04141pt"
   viewBox="0 0 457.9285 496.04142"
   preserveAspectRatio="xMidYMid"
   id="svg1"
   sodipodi:docname="file.svg"
   inkscape:export-filename="file_imp.svg"
   inkscape:export-xdpi="96"
   inkscape:export-ydpi="96"
   xmlns:inkscape="http://www.inkscape.org/namespaces/inkscape"
   xmlns:sodipodi="http://sodipodi.sourceforge.net/DTD/sodipodi-0.dtd"
   xmlns="http://www.w3.org/2000/svg"
   xmlns:svg="http://www.w3.org/2000/svg">
  <defs
     id="defs1" />
  <sodipodi:namedview
     id="namedview1"
     pagecolor="#ffffff"
     bordercolor="#000000"
     borderopacity="0.25"
     inkscape:showpageshadow="2"
     inkscape:pageopacity="0.0"
     inkscape:pagecheckerboard="0"
     inkscape:deskcolor="#d1d1d1"
     inkscape:document-units="pt"
     showguides="true">
    <inkscape:page
       x="0"
       y="0"
       width="457.9285"
       height="496.04141"
       id="page1"
       margin="0"
       bleed="0" />
  </sodipodi:namedview>
  <g
     transform="matrix(0.1,0,0,-0.1,-26.995682,437.72307)"
     id="g1"
     inkscape:export-filename="file1.png"
     inkscape:export-xdpi="96"
     inkscape:export-ydpi="96">
    <path
       d="M 712,4366 C 557,4327 404,4207 335,4068 266,3927 270,4024 270,2560 270,1096 266,1193 335,1052 406,909 569,784 728,751 c 75,-15 3589,-15 3664,0 29,6 90,28 135,50 133,63 238,183 296,335 l 22,59 3,1188 c 3,1313 6,1239 -61,1377 -46,94 -159,206 -257,254 -139,67 -106,66 -1210,66 h -995 l -19,34 c -46,86 -182,194 -299,237 -62,24 -62,24 -652,26 -456,1 -602,-1 -643,-11 z m 1213,-330 c 84,-39 110,-78 249,-381 71,-154 143,-300 159,-325 72,-105 191,-191 327,-236 51,-17 115,-19 963,-22 l 907,-3 -2,-912 c -3,-858 -4,-914 -21,-948 -23,-47 -79,-103 -126,-126 -34,-17 -119,-18 -1801,-21 -1367,-2 -1775,0 -1810,10 -59,16 -151,105 -168,164 -17,58 -17,2595 0,2645 24,73 88,138 162,166 22,8 183,12 571,12 l 540,1 z m 2421,-291 c 65,-19 126,-72 158,-137 22,-43 26,-66 26,-135 v -84 l -887,3 c -830,3 -891,4 -928,21 -72,32 -113,83 -176,216 -33,68 -59,125 -59,127 0,2 409,4 908,4 772,0 916,-2 958,-15 z"
       id="path1" />
  </g>
  <path
     d="m 236.02069,199.1414 c 3.6,0.8 9.5,6.4 51.2,48.2 45.8,45.9 47.1,47.3 48.3,52.3 3.4,15 -10.4,28.8 -25.4,25.3 -4.8,-1.1 -6.4,-2.4 -31.6,-27.5 -14.6,-14.5 -26.9,-26.4 -27.3,-26.4 -0.4,0 -0.7,47.3 -0.7,105 0,101.3 -0.1,105.2 -1.9,108.8 -3.9,7.5 -10.1,11.2 -19.1,11.2 -9,0 -15.2,-3.7 -19.1,-11.2 -1.8,-3.6 -1.9,-7.5 -1.9,-108.8 0,-57.7 -0.3,-105 -0.7,-105 -0.4,0 -12.7,11.9 -27.3,26.4 -25.2,25.1 -26.8,26.4 -31.6,27.5 -15,3.5 -28.8,-10.3 -25.4,-25.3 1.2,-5 2.6,-6.5 48.3,-52.3 42.1,-42.2 47.4,-47.2 51.3,-48.2 4.9,-1.3 7.3,-1.3 12.9,0 z"
     id="path1-8"
     style="stroke-width:0.1"
     sodipodi:nodetypes="cccccsscscsscccccc" />
</svg>
