<?xml version="1.0" encoding="UTF-8" standalone="no"?>
<svg
   version="1.0"
   width="448.46509pt"
   height="447.384pt"
   viewBox="0 0 448.46509 447.384"
   preserveAspectRatio="xMidYMid"
   id="svg2"
   sodipodi:docname="home.svg"
   xmlns:inkscape="http://www.inkscape.org/namespaces/inkscape"
   xmlns:sodipodi="http://sodipodi.sourceforge.net/DTD/sodipodi-0.dtd"
   xmlns="http://www.w3.org/2000/svg"
   xmlns:svg="http://www.w3.org/2000/svg">
  <defs
     id="defs2" />
  <sodipodi:namedview
     id="namedview2"
     pagecolor="#505050"
     bordercolor="#eeeeee"
     borderopacity="1"
     inkscape:showpageshadow="0"
     inkscape:pageopacity="0"
     inkscape:pagecheckerboard="0"
     inkscape:deskcolor="#505050"
     inkscape:document-units="pt" />
  <g
     transform="matrix(0.1,0,0,-0.1,-31.767447,479.875)"
     id="g2">
    <path
       d="M 2495,4786 C 2479,4778 1985,4291 1398,3703 238,2542 307,2617 325,2523 c 9,-49 69,-109 118,-118 94,-18 25,-81 1115,1008 L 2560,4415 3563,3413 C 4652,2324 4583,2387 4677,2405 c 49,9 109,69 118,118 18,94 87,19 -1073,1181 -625,625 -1080,1074 -1099,1082 -40,17 -89,17 -128,0 z"
       id="path1" />
    <path
       d="m 895,2226 c -41,-18 -83,-69 -90,-109 -3,-18 -4,-282 -2,-587 4,-624 1,-598 82,-765 78,-160 205,-286 369,-365 167,-80 77,-75 1306,-75 1236,0 1140,-6 1315,80 206,102 357,285 422,515 16,60 18,112 18,642 0,567 0,577 -21,604 -39,53 -71,69 -134,69 -63,0 -95,-16 -134,-69 -20,-27 -21,-41 -26,-589 -5,-544 -6,-564 -26,-619 -51,-134 -158,-241 -292,-292 -57,-21 -62,-21 -1087,-24 -738,-2 -1047,0 -1090,8 -69,13 -160,57 -216,103 -52,43 -116,135 -142,205 -21,55 -22,74 -27,619 -5,548 -6,562 -26,589 -11,15 -32,37 -46,47 -33,25 -113,32 -153,13 z"
       id="path2" />
  </g>
</svg>
