<?xml version="1.0" encoding="UTF-8" standalone="no"?>
<svg
   version="1.0"
   width="512pt"
   height="512pt"
   viewBox="0 0 512 512"
   preserveAspectRatio="xMidYMid"
   id="svg1"
   sodipodi:docname="less.svg"
   xmlns:inkscape="http://www.inkscape.org/namespaces/inkscape"
   xmlns:sodipodi="http://sodipodi.sourceforge.net/DTD/sodipodi-0.dtd"
   xmlns="http://www.w3.org/2000/svg"
   xmlns:svg="http://www.w3.org/2000/svg">
  <defs
     id="defs1" />
  <sodipodi:namedview
     id="namedview1"
     pagecolor="#ffffff"
     bordercolor="#000000"
     borderopacity="0.25"
     inkscape:showpageshadow="2"
     inkscape:pageopacity="0.0"
     inkscape:pagecheckerboard="0"
     inkscape:deskcolor="#d1d1d1"
     inkscape:document-units="pt" />
  <g
     transform="matrix(0.1,0,0,-0.1,0,512)"
     id="g1">
    <path
       d="m 3335,4386 c -16,-8 -420,-405 -897,-883 -942,-943 -891,-886 -873,-981 6,-33 104,-134 883,-914 953,-953 895,-901 989,-883 49,9 109,69 118,118 18,94 63,43 -808,915 l -802,802 802,803 c 711,711 802,806 808,840 24,133 -101,237 -220,183 z"
       id="path1" />
  </g>
</svg>
