<?xml version="1.0" encoding="UTF-8" standalone="no"?>
<svg
   version="1.0"
   width="512pt"
   height="512pt"
   viewBox="0 0 512 512"
   preserveAspectRatio="xMidYMid"
   id="svg2"
   sodipodi:docname="zoom-out-.svg"
   xmlns:inkscape="http://www.inkscape.org/namespaces/inkscape"
   xmlns:sodipodi="http://sodipodi.sourceforge.net/DTD/sodipodi-0.dtd"
   xmlns="http://www.w3.org/2000/svg"
   xmlns:svg="http://www.w3.org/2000/svg">
  <defs
     id="defs2" />
  <sodipodi:namedview
     id="namedview2"
     pagecolor="#ffffff"
     bordercolor="#000000"
     borderopacity="0.25"
     inkscape:showpageshadow="2"
     inkscape:pageopacity="0.0"
     inkscape:pagecheckerboard="0"
     inkscape:deskcolor="#d1d1d1"
     inkscape:document-units="pt" />
  <g
     transform="matrix(0.1,0,0,-0.1,0,512)"
     id="g2">
    <path
       d="M 2110,4679 C 1373,4584 762,4087 530,3393 459,3179 430,3001 430,2773 c 0,-427 126,-810 379,-1153 71,-95 234,-264 331,-343 670,-541 1648,-564 2343,-54 l 69,50 411,-411 c 227,-226 425,-416 440,-422 36,-13 118,-13 154,1 38,14 90,65 114,111 23,46 25,127 3,171 -9,18 -198,215 -421,439 l -406,406 50,69 c 422,582 487,1359 166,1998 -100,199 -182,314 -348,484 -299,308 -682,500 -1111,556 -123,16 -384,18 -494,4 z m 371,-420 c 372,-37 664,-174 920,-429 215,-215 344,-454 411,-764 32,-147 31,-436 -1,-586 -32,-151 -74,-268 -142,-400 -339,-655 -1114,-960 -1820,-714 -220,76 -389,184 -559,354 -127,126 -213,245 -285,394 -204,420 -201,914 7,1330 146,292 367,515 658,661 255,128 538,182 811,154 z"
       id="path1" />
    <path
       d="m 1641,2978 c -66,-15 -126,-79 -141,-152 -17,-83 0,-148 54,-202 24,-25 57,-46 81,-53 27,-7 253,-11 721,-11 h 680 l 55,28 c 45,22 59,36 82,81 44,88 33,182 -30,252 -63,70 -52,69 -797,68 -388,-1 -679,-5 -705,-11 z"
       id="path2" />
  </g>
</svg>
