<?xml version="1.0" encoding="UTF-8" standalone="no"?>
<svg
   version="1.0"
   width="512pt"
   height="512pt"
   viewBox="0 0 512 512"
   preserveAspectRatio="xMidYMid"
   id="svg2"
   sodipodi:docname="zoom-in.svg"
   xmlns:inkscape="http://www.inkscape.org/namespaces/inkscape"
   xmlns:sodipodi="http://sodipodi.sourceforge.net/DTD/sodipodi-0.dtd"
   xmlns="http://www.w3.org/2000/svg"
   xmlns:svg="http://www.w3.org/2000/svg">
  <defs
     id="defs2" />
  <sodipodi:namedview
     id="namedview2"
     pagecolor="#ffffff"
     bordercolor="#000000"
     borderopacity="0.25"
     inkscape:showpageshadow="2"
     inkscape:pageopacity="0.0"
     inkscape:pagecheckerboard="0"
     inkscape:deskcolor="#d1d1d1"
     inkscape:document-units="pt" />
  <g
     transform="matrix(0.1,0,0,-0.1,0,512)"
     id="g2">
    <path
       d="M 2175,4769 C 1496,4699 895,4293 575,3688 235,3042 270,2270 669,1658 992,1162 1510,830 2091,745 c 135,-19 410,-19 547,0 342,49 650,174 921,375 l 84,62 406,-406 c 277,-276 418,-410 443,-421 79,-32 165,-9 230,63 35,39 58,93 58,137 0,77 -7,86 -432,511 l -410,411 66,89 c 191,258 325,590 370,913 21,145 21,411 1,550 -86,586 -420,1103 -925,1430 -370,240 -842,355 -1275,310 z m 507,-448 C 3550,4135 4112,3286 3934,2430 3874,2139 3713,1845 3494,1626 3061,1191 2426,1041 1854,1240 1318,1427 920,1881 798,2444 c -18,85 -22,133 -22,306 0,175 3,220 22,307 73,334 207,579 446,818 258,258 539,402 895,460 125,21 415,13 543,-14 z"
       id="path1" />
    <path
       d="m 2323,3599 c -80,-15 -119,-46 -150,-114 -14,-34 -18,-79 -21,-277 l -4,-236 -236,-4 c -215,-3 -241,-5 -282,-24 -25,-12 -53,-30 -62,-40 -46,-52 -64,-161 -39,-236 6,-19 26,-49 44,-66 60,-58 82,-62 341,-62 h 234 l 4,-242 c 4,-259 8,-280 56,-332 80,-85 212,-87 301,-3 66,63 71,85 71,345 v 232 h 235 c 256,0 281,4 339,58 108,102 76,297 -59,353 -20,9 -109,14 -272,17 l -243,4 v 236 c 0,208 -3,242 -19,277 -24,53 -81,102 -128,110 -21,4 -45,8 -53,10 -8,1 -34,-1 -57,-6 z"
       id="path2" />
  </g>
</svg>
